<?xml version="1.0" encoding="utf-8" standalone="no"?>
<!DOCTYPE svg PUBLIC "-//W3C//DTD SVG 1.1//EN"
  "http://www.w3.org/Graphics/SVG/1.1/DTD/svg11.dtd">
<svg xmlns:xlink="http://www.w3.org/1999/xlink" width="460.8pt" height="345.6pt" viewBox="0 0 460.8 345.6" xmlns="http://www.w3.org/2000/svg" version="1.1">
 <metadata>
  <rdf:RDF xmlns:dc="http://purl.org/dc/elements/1.1/" xmlns:cc="http://creativecommons.org/ns#" xmlns:rdf="http://www.w3.org/1999/02/22-rdf-syntax-ns#">
   <cc:Work>
    <dc:type rdf:resource="http://purl.org/dc/dcmitype/StillImage"/>
    <dc:date>2025-01-10T17:16:19.133653</dc:date>
    <dc:format>image/svg+xml</dc:format>
    <dc:creator>
     <cc:Agent>
      <dc:title>Matplotlib v3.10.0, https://matplotlib.org/</dc:title>
     </cc:Agent>
    </dc:creator>
   </cc:Work>
  </rdf:RDF>
 </metadata>
 <defs>
  <style type="text/css">*{stroke-linejoin: round; stroke-linecap: butt}</style>
 </defs>
 <g id="figure_1">
  <g id="patch_1">
   <path d="M 0 345.6 
L 460.8 345.6 
L 460.8 0 
L 0 0 
L 0 345.6 
z
" style="fill: none"/>
  </g>
  <g id="axes_1">
   <g id="patch_2">
    <path d="M 354.816 172.8 
C 354.816 156.461841 351.597739 140.282549 345.345396 125.188058 
C 339.093053 110.093567 329.928221 96.377426 318.375397 84.824603 
C 306.822574 73.271779 293.106433 64.106947 278.011942 57.854604 
C 262.917451 51.602261 246.738159 48.384 230.4 48.384 
C 214.061841 48.384 197.882549 51.602261 182.788058 57.854604 
C 167.693567 64.106947 153.977426 73.271779 142.424603 84.824603 
C 130.871779 96.377426 121.706947 110.093567 115.454604 125.188058 
C 109.202261 140.282549 105.984 156.461841 105.984 172.8 
C 105.984 189.138159 109.202261 205.317451 115.454604 220.411942 
C 121.706947 235.506433 130.871779 249.222574 142.424603 260.775397 
C 153.977426 272.328221 167.693567 281.493053 182.788058 287.745396 
C 197.882549 293.997739 214.061841 297.216 230.4 297.216 
C 246.738159 297.216 262.917451 293.997739 278.011942 287.745396 
C 293.106433 281.493053 306.822574 272.328221 318.375397 260.775397 
C 329.928221 249.222574 339.093053 235.506433 345.345396 220.411942 
C 351.597739 205.317451 354.816 189.138159 354.816 172.8 
M 230.4 172.8 
z
" style="fill: #1f77b4"/>
   </g>
   <g id="matplotlib.axis_1"/>
   <g id="matplotlib.axis_2"/>
   <g id="text_1">
    <!-- food -->
    <g transform="translate(58.1724 177.215012) scale(0.16 -0.16)">
     <defs>
      <path id="DejaVuSans-66" d="M 2375 4863 
L 2375 4384 
L 1825 4384 
Q 1516 4384 1395 4259 
Q 1275 4134 1275 3809 
L 1275 3500 
L 2222 3500 
L 2222 3053 
L 1275 3053 
L 1275 0 
L 697 0 
L 697 3053 
L 147 3053 
L 147 3500 
L 697 3500 
L 697 3744 
Q 697 4328 969 4595 
Q 1241 4863 1831 4863 
L 2375 4863 
z
" transform="scale(0.015625)"/>
      <path id="DejaVuSans-6f" d="M 1959 3097 
Q 1497 3097 1228 2736 
Q 959 2375 959 1747 
Q 959 1119 1226 758 
Q 1494 397 1959 397 
Q 2419 397 2687 759 
Q 2956 1122 2956 1747 
Q 2956 2369 2687 2733 
Q 2419 3097 1959 3097 
z
M 1959 3584 
Q 2709 3584 3137 3096 
Q 3566 2609 3566 1747 
Q 3566 888 3137 398 
Q 2709 -91 1959 -91 
Q 1206 -91 779 398 
Q 353 888 353 1747 
Q 353 2609 779 3096 
Q 1206 3584 1959 3584 
z
" transform="scale(0.015625)"/>
      <path id="DejaVuSans-64" d="M 2906 2969 
L 2906 4863 
L 3481 4863 
L 3481 0 
L 2906 0 
L 2906 525 
Q 2725 213 2448 61 
Q 2172 -91 1784 -91 
Q 1150 -91 751 415 
Q 353 922 353 1747 
Q 353 2572 751 3078 
Q 1150 3584 1784 3584 
Q 2172 3584 2448 3432 
Q 2725 3281 2906 2969 
z
M 947 1747 
Q 947 1113 1208 752 
Q 1469 391 1925 391 
Q 2381 391 2643 752 
Q 2906 1113 2906 1747 
Q 2906 2381 2643 2742 
Q 2381 3103 1925 3103 
Q 1469 3103 1208 2742 
Q 947 2381 947 1747 
z
" transform="scale(0.015625)"/>
     </defs>
     <use xlink:href="#DejaVuSans-66"/>
     <use xlink:href="#DejaVuSans-6f" transform="translate(35.205078 0)"/>
     <use xlink:href="#DejaVuSans-6f" transform="translate(96.386719 0)"/>
     <use xlink:href="#DejaVuSans-64" transform="translate(157.568359 0)"/>
    </g>
   </g>
  </g>
 </g>
</svg>
